<svg xmlns="http://www.w3.org/2000/svg" width="256" height="256" viewBox="0 0 256 256" version="1.1"><path d="M 67 20.996 C 43.835 23.192, 27.873 36.131, 20.734 58.500 C 18.520 65.436, 18.500 66.073, 18.500 128 C 18.500 197.370, 18.425 196.465, 25.264 209.387 C 29.297 217.006, 38.912 226.636, 46.068 230.223 C 58.636 236.524, 58.327 236.500, 127 236.500 C 183.316 236.500, 190.123 236.328, 195.793 234.760 C 215.015 229.444, 228.445 216.038, 233.736 196.887 C 235.334 191.102, 235.500 184.661, 235.500 128.500 C 235.500 72.339, 235.334 65.898, 233.736 60.113 C 228.524 41.247, 214.415 27.001, 196.206 22.218 C 191.517 20.987, 180.250 20.673, 133 20.455 C 101.375 20.310, 71.675 20.553, 67 20.996 M 58.105 27.565 C 42.297 31.867, 29.671 44.647, 25.533 60.535 C 23.247 69.310, 23.247 187.690, 25.533 196.465 C 29.858 213.071, 44.472 226.931, 60.886 229.995 C 68.096 231.340, 185.904 231.340, 193.114 229.995 C 210.014 226.841, 225.445 211.627, 228.971 194.640 C 229.722 191.020, 229.980 169.097, 229.785 125.421 L 229.500 61.500 227.173 55.736 C 222.421 43.966, 212.028 33.578, 200.240 28.818 L 194.500 26.500 129 26.298 C 74.064 26.129, 62.630 26.334, 58.105 27.565 M 181.500 66.096 C 159.645 70.983, 149.994 73.602, 147.257 75.386 C 145.473 76.549, 144.011 77.794, 144.007 78.154 C 143.972 81.467, 87.680 145.722, 70.271 162.319 C 66.845 165.586, 64.264 168.619, 64.537 169.060 C 64.810 169.501, 64.568 170.149, 64 170.500 C 62.494 171.431, 63.804 173.012, 65.532 172.349 C 66.494 171.980, 67.008 172.426, 67.025 173.643 C 67.048 175.434, 90.027 195.500, 92.053 195.500 C 92.561 195.500, 101.644 187.144, 112.238 176.931 C 142.895 147.376, 159.981 132.275, 178.117 118.703 C 183.801 114.449, 185.233 112.783, 186.427 109.032 C 190.340 96.742, 193.824 70.698, 191.870 68.344 C 191.297 67.653, 191.118 66.618, 191.473 66.044 C 192.251 64.785, 187.241 64.811, 181.500 66.096 M 63 68.593 C 63 70.968, 67.686 90.756, 70.562 100.524 L 72.924 108.548 82.480 116.524 C 87.736 120.911, 92.673 124.640, 93.450 124.810 C 95.064 125.164, 112.862 104.786, 116.798 98.076 L 119.394 93.653 109.308 84.008 L 99.222 74.363 88.687 72.647 C 79.518 71.153, 70.715 69.223, 64.750 67.400 C 63.552 67.034, 63 67.410, 63 68.593 M 67.170 73 C 67.186 73.825, 67.560 75.625, 68 77 C 68.644 79.010, 68.806 79.108, 68.830 77.500 C 68.846 76.400, 68.473 74.600, 68 73.500 C 67.473 72.275, 67.152 72.081, 67.170 73 M 93.051 75.327 C 93.355 75.662, 95.380 76.665, 97.551 77.556 C 100.943 78.947, 101.289 78.960, 100 77.653 C 98.611 76.244, 91.824 73.972, 93.051 75.327 M 159.370 90.310 C 157.079 92.665, 155 96.255, 155 97.858 C 155 98.401, 156.165 100.231, 157.589 101.923 C 160.854 105.803, 165.050 106.041, 168.545 102.545 C 172.664 98.427, 171.484 92.336, 166.020 89.510 C 162.333 87.604, 161.960 87.649, 159.370 90.310 M 129.947 103.245 C 117.929 118.165, 100.425 137.398, 83.987 153.745 C 75.555 162.130, 68.847 169.180, 69.079 169.413 C 69.748 170.081, 99.949 140.441, 108.728 130.500 C 123.280 114.021, 139.197 94, 137.745 94 C 137.552 94, 134.043 98.160, 129.947 103.245 M 128.872 100.750 C 127.629 102.336, 127.664 102.371, 129.250 101.128 C 130.213 100.373, 131 99.585, 131 99.378 C 131 98.555, 130.179 99.084, 128.872 100.750 M 184.104 105.427 C 183.025 110.247, 182.116 111.609, 176.687 116.536 L 170.500 122.151 177.235 116.996 C 183.091 112.514, 184.168 111.174, 185.489 106.725 C 186.325 103.911, 186.632 101.232, 186.171 100.771 C 185.710 100.310, 184.780 102.405, 184.104 105.427 M 123.405 107.250 L 121.500 109.500 123.750 107.595 C 124.987 106.547, 126 105.535, 126 105.345 C 126 104.545, 125.195 105.136, 123.405 107.250 M 118.510 112.990 C 116.935 114.634, 115.838 116.139, 116.073 116.334 C 116.308 116.529, 117.782 115.184, 119.348 113.344 C 122.886 109.191, 122.362 108.969, 118.510 112.990 M 111.437 121.250 L 108.500 124.500 111.750 121.563 C 113.537 119.948, 115 118.485, 115 118.313 C 115 117.540, 114.175 118.221, 111.437 121.250 M 104.405 129.250 L 102.500 131.500 104.750 129.595 C 105.987 128.547, 107 127.535, 107 127.345 C 107 126.545, 106.195 127.136, 104.405 129.250 M 157.828 144.898 C 150.853 150.178, 145 155.673, 145 156.941 C 145 157.375, 143.670 159.252, 142.045 161.113 L 139.091 164.497 141.462 166.499 C 154.597 177.587, 174.341 193, 175.410 193 C 176.149 193, 180.665 188.739, 185.445 183.531 L 194.137 174.062 188.194 166.281 C 181.163 157.075, 166.127 140, 165.052 140 C 164.637 140, 161.387 142.204, 157.828 144.898 M 144.988 160.513 C 141.718 163.886, 141.673 164.041, 143.556 165.425 C 145.347 166.742, 145.549 166.624, 146.122 163.933 C 146.465 162.327, 147.316 160.324, 148.015 159.482 C 150.616 156.348, 148.240 157.157, 144.988 160.513 M 166.540 182.190 C 167.050 183.466, 175 189.570, 175 188.685 C 175 188.441, 172.979 186.585, 170.508 184.560 C 168.038 182.536, 166.252 181.469, 166.540 182.190" stroke="none" fill="#6c66d7" fill-rule="evenodd"/><path d="M 58.105 27.565 C 42.297 31.867, 29.671 44.647, 25.533 60.535 C 23.247 69.310, 23.247 187.690, 25.533 196.465 C 29.858 213.071, 44.472 226.931, 60.886 229.995 C 68.096 231.340, 185.904 231.340, 193.114 229.995 C 210.014 226.841, 225.445 211.627, 228.971 194.640 C 229.722 191.020, 229.980 169.097, 229.785 125.421 L 229.500 61.500 227.173 55.736 C 222.421 43.966, 212.028 33.578, 200.240 28.818 L 194.500 26.500 129 26.298 C 74.064 26.129, 62.630 26.334, 58.105 27.565 M 181.500 66.096 C 159.645 70.983, 149.994 73.602, 147.257 75.386 C 145.473 76.549, 144.011 77.794, 144.007 78.154 C 143.972 81.467, 87.680 145.722, 70.271 162.319 C 66.845 165.586, 64.264 168.619, 64.537 169.060 C 64.810 169.501, 64.568 170.149, 64 170.500 C 62.494 171.431, 63.804 173.012, 65.532 172.349 C 66.494 171.980, 67.008 172.426, 67.025 173.643 C 67.048 175.434, 90.027 195.500, 92.053 195.500 C 92.561 195.500, 101.644 187.144, 112.238 176.931 C 142.895 147.376, 159.981 132.275, 178.117 118.703 C 183.801 114.449, 185.233 112.783, 186.427 109.032 C 190.340 96.742, 193.824 70.698, 191.870 68.344 C 191.297 67.653, 191.118 66.618, 191.473 66.044 C 192.251 64.785, 187.241 64.811, 181.500 66.096 M 63 68.593 C 63 70.968, 67.686 90.756, 70.562 100.524 L 72.924 108.548 82.480 116.524 C 87.736 120.911, 92.673 124.640, 93.450 124.810 C 95.064 125.164, 112.862 104.786, 116.798 98.076 L 119.394 93.653 109.308 84.008 L 99.222 74.363 88.687 72.647 C 79.518 71.153, 70.715 69.223, 64.750 67.400 C 63.552 67.034, 63 67.410, 63 68.593 M 67.170 73 C 67.186 73.825, 67.560 75.625, 68 77 C 68.644 79.010, 68.806 79.108, 68.830 77.500 C 68.846 76.400, 68.473 74.600, 68 73.500 C 67.473 72.275, 67.152 72.081, 67.170 73 M 93.051 75.327 C 93.355 75.662, 95.380 76.665, 97.551 77.556 C 100.943 78.947, 101.289 78.960, 100 77.653 C 98.611 76.244, 91.824 73.972, 93.051 75.327 M 159.370 90.310 C 157.079 92.665, 155 96.255, 155 97.858 C 155 98.401, 156.165 100.231, 157.589 101.923 C 160.854 105.803, 165.050 106.041, 168.545 102.545 C 172.664 98.427, 171.484 92.336, 166.020 89.510 C 162.333 87.604, 161.960 87.649, 159.370 90.310 M 129.947 103.245 C 117.929 118.165, 100.425 137.398, 83.987 153.745 C 75.555 162.130, 68.847 169.180, 69.079 169.413 C 69.748 170.081, 99.949 140.441, 108.728 130.500 C 123.280 114.021, 139.197 94, 137.745 94 C 137.552 94, 134.043 98.160, 129.947 103.245 M 128.872 100.750 C 127.629 102.336, 127.664 102.371, 129.250 101.128 C 130.213 100.373, 131 99.585, 131 99.378 C 131 98.555, 130.179 99.084, 128.872 100.750 M 184.104 105.427 C 183.025 110.247, 182.116 111.609, 176.687 116.536 L 170.500 122.151 177.235 116.996 C 183.091 112.514, 184.168 111.174, 185.489 106.725 C 186.325 103.911, 186.632 101.232, 186.171 100.771 C 185.710 100.310, 184.780 102.405, 184.104 105.427 M 123.405 107.250 L 121.500 109.500 123.750 107.595 C 124.987 106.547, 126 105.535, 126 105.345 C 126 104.545, 125.195 105.136, 123.405 107.250 M 118.510 112.990 C 116.935 114.634, 115.838 116.139, 116.073 116.334 C 116.308 116.529, 117.782 115.184, 119.348 113.344 C 122.886 109.191, 122.362 108.969, 118.510 112.990 M 111.437 121.250 L 108.500 124.500 111.750 121.563 C 113.537 119.948, 115 118.485, 115 118.313 C 115 117.540, 114.175 118.221, 111.437 121.250 M 104.405 129.250 L 102.500 131.500 104.750 129.595 C 105.987 128.547, 107 127.535, 107 127.345 C 107 126.545, 106.195 127.136, 104.405 129.250 M 157.828 144.898 C 150.853 150.178, 145 155.673, 145 156.941 C 145 157.375, 143.670 159.252, 142.045 161.113 L 139.091 164.497 141.462 166.499 C 154.597 177.587, 174.341 193, 175.410 193 C 176.149 193, 180.665 188.739, 185.445 183.531 L 194.137 174.062 188.194 166.281 C 181.163 157.075, 166.127 140, 165.052 140 C 164.637 140, 161.387 142.204, 157.828 144.898 M 144.988 160.513 C 141.718 163.886, 141.673 164.041, 143.556 165.425 C 145.347 166.742, 145.549 166.624, 146.122 163.933 C 146.465 162.327, 147.316 160.324, 148.015 159.482 C 150.616 156.348, 148.240 157.157, 144.988 160.513 M 166.540 182.190 C 167.050 183.466, 175 189.570, 175 188.685 C 175 188.441, 172.979 186.585, 170.508 184.560 C 168.038 182.536, 166.252 181.469, 166.540 182.190" stroke="none" fill="#edf1f7" fill-rule="evenodd"/></svg>